<?xml version="1.0" encoding="UTF-8"?>
<svg data-name="Component 11 – 1" viewBox="0 0 322.58 130.42" xmlns="http://www.w3.org/2000/svg">
<path transform="translate(-1692.8 -1501)" d="M2011.885,1532.042a53.3,53.3,0,0,0-10.468-15.68,50.041,50.041,0,0,0-15.633-10.468,46.739,46.739,0,0,0-15.034-3.69h-37.308a46.725,46.725,0,0,0-15.081,3.689,41.521,41.521,0,0,0-4.611,2.353,53.475,53.475,0,0,0-6.042-3.137,47.6,47.6,0,0,0-19.138-3.965H1859.7l12.359,12.451h16.279a37.962,37.962,0,0,1,14.3,2.813,52.578,52.578,0,0,0-10.469,15.587,48.241,48.241,0,0,0,0,37.447,50.75,50.75,0,0,0,10.514,15.54,38.687,38.687,0,0,1-14.342,2.721h-16.279l-12.359,12.5h28.638a47.406,47.406,0,0,0,19.139-3.965,56.281,56.281,0,0,0,5.994-3.044c1.568.83,3.137,1.66,4.612,2.352a47.07,47.07,0,0,0,15.034,3.735h37.308a48.194,48.194,0,0,0,15.08-3.69,49.987,49.987,0,0,0,26.1-26.148,48.145,48.145,0,0,0,0-37.4Zm-110.678,18.446a34.774,34.774,0,0,1,2.86-13.834,38.742,38.742,0,0,1,7.7-11.437c.6-.646,1.246-1.246,1.891-1.845l1.061,1.015a37.3,37.3,0,0,1,8.07,11.852,36.439,36.439,0,0,1,0,28.73,39.356,39.356,0,0,1-7.886,11.76l-1.106,1.106-1.891-1.752a36.34,36.34,0,0,1-7.839-11.482,34.782,34.782,0,0,1-2.86-13.88Zm99.149,13.835a35.833,35.833,0,0,1-33.3,22.043h-29.7a37.638,37.638,0,0,1-12.774-2.259,53.641,53.641,0,0,0,9.638-14.8,49.068,49.068,0,0,0,0-38,52.108,52.108,0,0,0-9.638-14.71,36.889,36.889,0,0,1,12.774-2.26h29.7a37.672,37.672,0,0,1,14.111,2.72,35.552,35.552,0,0,1,11.483,7.886,38.366,38.366,0,0,1,7.7,11.483,35.185,35.185,0,0,1,2.858,13.835,35.541,35.541,0,0,1-2.906,14.434Zm-254.189-13.835,49.436-49.343v99.01h-12.636v-68.574l-38.691,39.06L1692.81,1518.9v-17.754l49.667,49.528,1.8,1.937ZM1864.13,1585.4a50.309,50.309,0,0,1-15.818,10.654,47.523,47.523,0,0,1-19.184,3.965h-28.592l12.359-12.5h16.233a38.313,38.313,0,0,0,14.481-2.767,37.509,37.509,0,0,0,11.9-8.117,40.84,40.84,0,0,0,7.886-11.759,36.434,36.434,0,0,0,0-28.73,38.049,38.049,0,0,0-8.07-11.851,39.231,39.231,0,0,0-11.806-8.07,38.458,38.458,0,0,0-14.388-2.814H1812.9l-12.359-12.451h28.592a47.688,47.688,0,0,1,19.184,3.967,51.241,51.241,0,0,1,15.726,10.652,51.826,51.826,0,0,1,10.791,15.91,49.067,49.067,0,0,1,0,38,53.591,53.591,0,0,1-10.514,16.094Zm-112.937,40.49a2.723,2.723,0,0,1,.6,1.891,3.184,3.184,0,0,1-.553,1.8,3.692,3.692,0,0,1-1.661,1.292,6.608,6.608,0,0,1-2.674.507,8.835,8.835,0,0,1-2.721-.414,5.505,5.505,0,0,1-2.076-1.061l.785-1.752a5.4,5.4,0,0,0,1.844.968,6.9,6.9,0,0,0,2.167.37,3.735,3.735,0,0,0,1.984-.416,1.384,1.384,0,0,0,.692-1.153,1.2,1.2,0,0,0-.368-.876,2.782,2.782,0,0,0-.969-.506l-1.522-.462a12.518,12.518,0,0,1-2.259-.646,3.691,3.691,0,0,1-1.476-1.014,2.727,2.727,0,0,1-.6-1.891,3.543,3.543,0,0,1,.506-1.845,3.7,3.7,0,0,1,1.661-1.291,6.824,6.824,0,0,1,2.72-.508,8.721,8.721,0,0,1,2.167.278,6.707,6.707,0,0,1,1.846.784l-.693,1.753a12.645,12.645,0,0,0-1.66-.692,7.551,7.551,0,0,0-1.706,0,3.42,3.42,0,0,0-1.983.461,1.384,1.384,0,0,0-.646,1.152,1.2,1.2,0,0,0,.368.876,2.775,2.775,0,0,0,.969.508l1.521.46a13.946,13.946,0,0,1,2.26.646,3.552,3.552,0,0,1,1.428.967Zm16.325-6.825h2.213v6.825a5.529,5.529,0,0,1-1.383,4.058,5.3,5.3,0,0,1-3.92,1.43,5.443,5.443,0,0,1-3.92-1.43,5.531,5.531,0,0,1-1.384-4.058v-6.825h2.26v6.732c0,2.4,1.014,3.6,3.09,3.6s3.044-1.2,3.044-3.6Zm18.446.507a7.236,7.236,0,0,0-2.768-.508h-4.979v12.128h2.259v-3.5h2.721a7.244,7.244,0,0,0,2.767-.507,4.2,4.2,0,0,0,1.8-1.521,4.107,4.107,0,0,0,.6-2.306,4.059,4.059,0,0,0-.6-2.259,3.924,3.924,0,0,0-1.845-1.339Zm-.6,5.58a3.462,3.462,0,0,1-2.259.646h-2.629v-4.611h2.628a3.46,3.46,0,0,1,2.26.646,2.122,2.122,0,0,1,.737,1.752,2.167,2.167,0,0,1-.922,1.753Zm18.446-5.58a7.234,7.234,0,0,0-2.768-.508h-4.979v12.128h2.259v-3.5h2.721a7.242,7.242,0,0,0,2.767-.507,4.205,4.205,0,0,0,1.8-1.521,4.1,4.1,0,0,0,.6-2.306,4.047,4.047,0,0,0-.6-2.259,3.92,3.92,0,0,0-2.214-1.338Zm-.646,5.58a3.411,3.411,0,0,1-2.213.645h-2.628v-4.611h2.628a3.409,3.409,0,0,1,2.214.646,2.164,2.164,0,0,1,.784,1.752,2.211,2.211,0,0,1-1.2,1.753Zm12.774,4.15h6.318v1.891h-8.578v-12.128h2.26Zm19.784-10.237h2.213l-4.611,7.839v4.289h-2.214v-4.243l-4.611-7.885h2.444l3.551,5.9Zm20.844,3.874a4.332,4.332,0,0,0-.553,2.167,4.61,4.61,0,0,0,.553,2.213,4.013,4.013,0,0,0,1.521,1.522,4.623,4.623,0,0,0,2.26.553,4.288,4.288,0,0,0,3.228-1.429l1.476,1.383a5.68,5.68,0,0,1-2.122,1.475,6.512,6.512,0,0,1-2.72.555,6.824,6.824,0,0,1-3.319-.832,5.908,5.908,0,0,1-2.308-2.213,6.367,6.367,0,0,1-.83-3.227,6.171,6.171,0,0,1,.831-3.182,5.431,5.431,0,0,1,2.352-2.213,6.6,6.6,0,0,1,3.32-.83,7.077,7.077,0,0,1,2.674.506,6.414,6.414,0,0,1,2.122,1.522l-1.476,1.384a4.149,4.149,0,0,0-3.228-1.43,4.6,4.6,0,0,0-2.26.554,4.01,4.01,0,0,0-1.936,1.708Zm24.349-3.874h2.26v12.128h-2.26v-5.211h-6.271v5.211h-2.26v-12.128h2.26v5.026h6.271Zm14.435,0-5.442,12.128h2.306l1.2-2.813h6.087l1.2,2.813h2.352l-5.487-12.128Zm-1.153,7.563,2.259-5.3,2.306,5.3Zm15.587-7.563h2.26v12.128h-2.26Zm19.276,0h2.26v12.128h-2.445l-6.687-8.209v8.209h-2.213v-12.128h1.845l6.687,8.208Zm12.959,10.237h6.825v1.891h-9.223v-12.128h8.854v1.891h-6.595v3.136h5.441v1.845h-5.857Zm24.026-3.551a4.151,4.151,0,0,0,.646-2.4,4.065,4.065,0,0,0-.6-2.259,3.921,3.921,0,0,0-1.8-1.522,7.152,7.152,0,0,0-2.719-.507h-5.027v12.128h2.26v-3.551h3.228l2.444,3.551h2.444l-2.767-3.966a4.053,4.053,0,0,0,1.613-1.291Zm-4.611,0h-2.628v-4.612h2.628a3.457,3.457,0,0,1,2.26.645,2.122,2.122,0,0,1,.737,1.752,2.169,2.169,0,0,1-.739,1.8,3.232,3.232,0,0,1-2.536.645Z" fill="#0f8a90" data-name="Path 80939"/>
</svg>
